<svg width="22" height="22" viewBox="0 0 22 22" fill="none" xmlns="http://www.w3.org/2000/svg">
<path d="M16.8264 15.8044L17.0973 15.4561C18.3196 13.8843 19.055 11.9171 19.055 9.7778C19.055 4.66269 14.8928 0.5 9.778 0.5C4.66216 0.5 0.5 4.66273 0.5 9.7778C0.5 14.8929 4.66216 19.0556 9.778 19.0556C11.9171 19.0556 13.8842 18.3201 15.4561 17.0977L15.8044 16.8268L16.1165 17.1388L20.266 21.2878C20.2662 21.288 20.2664 21.2882 20.2665 21.2883C20.4086 21.4297 20.593 21.5 20.777 21.5C20.9623 21.5 21.1467 21.4295 21.2886 21.2882C21.5702 21.0055 21.5701 20.5498 21.2884 20.2672L16.8264 15.8044ZM16.8264 15.8044L17.1384 16.1165L21.2881 20.2669L16.8264 15.8044Z" stroke="black"/>
</svg>
