<svg width="150" height="41" viewBox="0 0 150 41" fill="none" xmlns="http://www.w3.org/2000/svg">
<g clip-path="url(#clip0_30_46)">
<path d="M19.6719 20.9297C18.3854 20.5599 17.4479 20.1068 16.8594 19.5703C16.276 19.0286 15.9844 18.362 15.9844 17.5703C15.9844 16.6745 16.3411 15.9349 17.0547 15.3516C17.7734 14.763 18.7057 14.4688 19.8516 14.4688C20.6328 14.4688 21.3281 14.6198 21.9375 14.9219C22.5521 15.224 23.026 15.6406 23.3594 16.1719C23.6979 16.7031 23.8672 17.2839 23.8672 17.9141H22.3594C22.3594 17.2266 22.1406 16.6875 21.7031 16.2969C21.2656 15.901 20.6484 15.7031 19.8516 15.7031C19.112 15.7031 18.5339 15.8672 18.1172 16.1953C17.7057 16.5182 17.5 16.9688 17.5 17.5469C17.5 18.0104 17.6953 18.4036 18.0859 18.7266C18.4818 19.0443 19.151 19.3359 20.0938 19.6016C21.0417 19.8672 21.7812 20.1615 22.3125 20.4844C22.849 20.8021 23.2448 21.1745 23.5 21.6016C23.7604 22.0286 23.8906 22.5312 23.8906 23.1094C23.8906 24.0312 23.5312 24.7708 22.8125 25.3281C22.0938 25.8802 21.1328 26.1562 19.9297 26.1562C19.1484 26.1562 18.4193 26.0078 17.7422 25.7109C17.0651 25.4089 16.5417 24.9974 16.1719 24.4766C15.8073 23.9557 15.625 23.3646 15.625 22.7031H17.1328C17.1328 23.3906 17.3854 23.9349 17.8906 24.3359C18.401 24.7318 19.0807 24.9297 19.9297 24.9297C20.7214 24.9297 21.3281 24.7682 21.75 24.4453C22.1719 24.1224 22.3828 23.6823 22.3828 23.125C22.3828 22.5677 22.1875 22.138 21.7969 21.8359C21.4062 21.5286 20.6979 21.2266 19.6719 20.9297ZM29.1016 26.1562C27.9557 26.1562 27.0234 25.7812 26.3047 25.0312C25.5859 24.276 25.2266 23.2682 25.2266 22.0078V21.7422C25.2266 20.9036 25.3854 20.1562 25.7031 19.5C26.026 18.8385 26.474 18.3229 27.0469 17.9531C27.625 17.5781 28.25 17.3906 28.9219 17.3906C30.0208 17.3906 30.875 17.7526 31.4844 18.4766C32.0938 19.2005 32.3984 20.237 32.3984 21.5859V22.1875H26.6719C26.6927 23.0208 26.9349 23.6953 27.3984 24.2109C27.8672 24.7214 28.4609 24.9766 29.1797 24.9766C29.6901 24.9766 30.1224 24.8724 30.4766 24.6641C30.8307 24.4557 31.1406 24.1797 31.4062 23.8359L32.2891 24.5234C31.5807 25.612 30.5182 26.1562 29.1016 26.1562ZM28.9219 18.5781C28.3385 18.5781 27.849 18.7917 27.4531 19.2188C27.0573 19.6406 26.8125 20.2344 26.7188 21H30.9531V20.8906C30.9115 20.1562 30.7135 19.5885 30.3594 19.1875C30.0052 18.7812 29.526 18.5781 28.9219 18.5781ZM39.2969 26C39.2135 25.8333 39.1458 25.5365 39.0938 25.1094C38.4219 25.8073 37.6198 26.1562 36.6875 26.1562C35.8542 26.1562 35.1693 25.9219 34.6328 25.4531C34.1016 24.9792 33.8359 24.3802 33.8359 23.6562C33.8359 22.776 34.1693 22.0938 34.8359 21.6094C35.5078 21.1198 36.4505 20.875 37.6641 20.875H39.0703V20.2109C39.0703 19.7057 38.9193 19.3047 38.6172 19.0078C38.3151 18.7057 37.8698 18.5547 37.2812 18.5547C36.7656 18.5547 36.3333 18.6849 35.9844 18.9453C35.6354 19.2057 35.4609 19.5208 35.4609 19.8906H34.0078C34.0078 19.4688 34.1562 19.0625 34.4531 18.6719C34.7552 18.276 35.1615 17.9635 35.6719 17.7344C36.1875 17.5052 36.7526 17.3906 37.3672 17.3906C38.3411 17.3906 39.1042 17.6354 39.6562 18.125C40.2083 18.6094 40.4948 19.2786 40.5156 20.1328V24.0234C40.5156 24.7995 40.6146 25.4167 40.8125 25.875V26H39.2969ZM36.8984 24.8984C37.3516 24.8984 37.7812 24.7812 38.1875 24.5469C38.5938 24.3125 38.888 24.0078 39.0703 23.6328V21.8984H37.9375C36.1667 21.8984 35.2812 22.4167 35.2812 23.4531C35.2812 23.9062 35.4323 24.2604 35.7344 24.5156C36.0365 24.7708 36.4245 24.8984 36.8984 24.8984ZM46.8672 18.8438C46.6484 18.8073 46.4115 18.7891 46.1562 18.7891C45.2083 18.7891 44.5651 19.1927 44.2266 20V26H42.7812V17.5469H44.1875L44.2109 18.5234C44.6849 17.7682 45.3568 17.3906 46.2266 17.3906C46.5078 17.3906 46.7214 17.4271 46.8672 17.5V18.8438ZM51.4375 24.9766C51.9531 24.9766 52.4036 24.8203 52.7891 24.5078C53.1745 24.1953 53.388 23.8047 53.4297 23.3359H54.7969C54.7708 23.8203 54.6042 24.2812 54.2969 24.7188C53.9896 25.1562 53.5781 25.5052 53.0625 25.7656C52.5521 26.026 52.0104 26.1562 51.4375 26.1562C50.2865 26.1562 49.3698 25.7734 48.6875 25.0078C48.0104 24.237 47.6719 23.1849 47.6719 21.8516V21.6094C47.6719 20.7865 47.8229 20.0547 48.125 19.4141C48.4271 18.7734 48.8594 18.276 49.4219 17.9219C49.9896 17.5677 50.6589 17.3906 51.4297 17.3906C52.3776 17.3906 53.1641 17.6745 53.7891 18.2422C54.4193 18.8099 54.7552 19.5469 54.7969 20.4531H53.4297C53.388 19.9062 53.1797 19.4583 52.8047 19.1094C52.4349 18.7552 51.9766 18.5781 51.4297 18.5781C50.6953 18.5781 50.125 18.8438 49.7188 19.375C49.3177 19.901 49.1172 20.6641 49.1172 21.6641V21.9375C49.1172 22.9115 49.3177 23.6615 49.7188 24.1875C50.1198 24.7135 50.6927 24.9766 51.4375 24.9766ZM57.8672 18.5703C58.5078 17.7839 59.3411 17.3906 60.3672 17.3906C62.1536 17.3906 63.0547 18.3984 63.0703 20.4141V26H61.625V20.4062C61.6198 19.7969 61.4792 19.3464 61.2031 19.0547C60.9323 18.763 60.5078 18.6172 59.9297 18.6172C59.4609 18.6172 59.0495 18.7422 58.6953 18.9922C58.3411 19.2422 58.0651 19.5703 57.8672 19.9766V26H56.4219V14H57.8672V18.5703Z" fill="#464444"/>
<path d="M135 1H15C6.99187 1 0.5 7.49187 0.5 15.5V25.5C0.5 33.5081 6.99187 40 15 40H135C143.008 40 149.5 33.5081 149.5 25.5V15.5C149.5 7.49187 143.008 1 135 1Z" stroke="#222222"/>
<path fill-rule="evenodd" clip-rule="evenodd" d="M141.642 29.4137L137.492 25.263C138.779 23.6081 139.555 21.534 139.555 19.2778C139.555 13.8866 135.169 9.5 129.778 9.5C124.386 9.5 120 13.8866 120 19.2778C120 24.669 124.386 29.0556 129.778 29.0556C132.034 29.0556 134.108 28.2794 135.763 26.9924L139.913 31.1419C140.152 31.3802 140.465 31.5 140.777 31.5C141.09 31.5 141.403 31.3802 141.642 31.1419C142.119 30.664 142.119 29.8916 141.642 29.4137Z" fill="#231F20"/>
</g>
<defs>
<clipPath id="clip0_30_46">
<rect width="150" height="41" fill="white"/>
</clipPath>
</defs>
</svg>
